/* XPM */
static char *dd453596fc524d8af3390a4f3618d365xBFmI49cwPp2ZDUR[] = {
/* columns rows colors chars-per-pixel */
"50 50 9 1 ",
"  c black",
". c #4D0000",
"X c #780505",
"o c #692D0C",
"O c #9A0000",
"+ c #B43000",
"@ c #F2B932",
"# c #F9C2C2",
"$ c white",
/* pixels */
"OOOOOOOOOOOOOOOOOOOOOOX+OOOOOOOOOOOOOOOOOOOOOOOOOO",
"OOOO...OOOOOO                     OOOOOOOOOOOOOOOO",
"OOOO.O..OOOOO                     XXOOOOOOO....OOO",
"OOOOOO.OOOO@+                     X+XOOOO...@+..OO",
"OOO.O......O+   oooooo   oooooo   OXXOOOO.@++@@.OO",
"OOOO...@@.OOO   oooooo   oooooo   OOOOOO+.+@+++.OO",
"OOO..@@@+.OOO   oooooo   oooooo   OOOO@+X..@++@.OO",
"OOO.@+++@...O   oooooo   oooooo   ..OO+OOO.+@@+.OO",
"OOO.+@++@+.OX   oooooo   oooooo   .OO+XOOO......OO",
"OOO..@@@+@.O+                        OOOOO.OO.O+XO",
"OOOO........O                        OOOOOOOOOOO+@",
"OOO..O.OO.OOO                        .OOOOOOOOO@X+",
"OOOOOOOOOOOOO   oooooo   oooooo   ooo   OXXOO+@+OO",
"OXXOOOOOOOOOO   oooooo   oooooo   ooo   X+XOOXOOOO",
"OX+XOOOOOXXOO   oooooo   oooooo   ooo   XXOOOOX+OO",
"OOXX            oooooo   oooooo   oooooo      +XOO",
"OOOO            oooooo   oooooo   oooooo      @OOO",
"OOOO            oooooo   oooooo   oooooo      OOOO",
"O   $$$$$$$$$                           $$$$$$   O",
"O   $$$$$$$$$                           $$$$$$   O",
"O   $$$$$$$$$                           $$$$$$   O",
"OOOO      $$$$$$$$$$$$$$$$$$$$$$$$$$$$$$$$$   @.OO",
"OOOO      $$$$$$$$$$$$$$$$$$$$$$$$$$$$$$$$$   @.OO",
"OOOO      $$$$$$$$$$$$$$$$$$$$$$$$$$$$$$$$$   ..OO",
"OOOOOOO      $$$      $$$   $$$$$$         @@.OOOO",
"OOOOOOO      $$$      $$$   $$$$$$         ....OOO",
"OOOOXXO      $$$      $$$   $$$$$$         OO.OOOO",
"OOOX+XO   ###   ###$$$   ###      $$$###   OOOOOOO",
"OOOXXOO   ###   ###$$$   ###      $$$###   OOOOOOO",
"OOOOOOO   ###   ###$$$   ###      $$$###   OOOOOOO",
"+@+OOO.   ###$$$###$$$######$$$###$$$###   OXXOOOO",
"O+X+XOO   ###$$$###$$$######$$$###$$$###   OX+XOOO",
"OOOO+OO   ###$$$###$$$######$$$###$$$###   OOXXOOO",
"OOOOO..   ###$$$###$$$$$$$$$$$$###$$$###   OOOOOOO",
"OOOOO.@   ###$$$###$$$$$$$$$$$$###$$$###   .OOOOOO",
"OOOOO.@   ###$$$###$$$$$$$$$$$$###$$$###   .O+OOOO",
"OXXOO..   ###$$$##################$$$###   ..@+X+X",
"OX+XOOO   ###$$$##################$$$###   .OOX+@+",
"OOXXOOO   ###$$$##################$$$###   ..OOOOO",
"OOOOOOO   ###$$$$$$$$$$$$$$$$$$$$$$$$###   .OOOOOO",
"OOOOOOO   ###$$$$$$$$$$$$$$$$$$$$$$$$###   ..OOOOO",
"OOOOOOO   ###$$$$$$$$$$$$$$$$$$$$$$$$###   .OOOOOO",
"OOOOOOO   ##############################   OOOOOOO",
"OOOOOOO   ##############################   OOOOOOO",
"OOOOOOO   ##############################   OOOOOOO",
"OOOOOOO                                    XXOOOOO",
"OOOOOXX                                    X+XOOOO",
"OOOOX+X                                    OXXOOOO",
"OOOOXXOOOX+OOOOOOOOOOOOOOOOOOOOOOOOOOOOOOOOOOOOOOO",
"OOOOOOOOO+@OOOOOOOOOOOOOOOOOOOOOOOOOOOOOOOOOOOOOOO"
};
