/* XPM */
static char *ff08d2f1768a468d8e260485e923ebb8wJTJRCP7VWPo3E8c[] = {
/* columns rows colors chars-per-pixel */
"50 50 10 1 ",
"  c black",
". c #4D0000",
"X c #780505",
"o c #6B2626",
"O c #9A0000",
"+ c #B43000",
"@ c #188D26",
"# c #F2B932",
"$ c #00B0FF",
"% c white",
/* pixels */
"OOOOOOOOOOOOOOOOOOOOOOOOOO+XOOOOOOOOOOOOOOOOOOOOOO",
"OOOOOOOOOOOOOOOOOOOOO#oOO+#+#+OOX+OOOOOOOOO...OOOO",
"OOO....OOOOOOOXXOOOOOooO+XOOO+X+#O$$+OOOOO..O.OOOO",
"OO..+#...OOOOX+XOOOOOOOOX+OOOOOOO$ $X+#OOOO.OOOOOO",
"OO.##++#.OOOOXXOOOOOOOO#+OOOXXOO$  $O+O......O.OOO",
"OO.+++#+.+OOOOOOOOOOOOX+XOOX+XO$   $OO$O.##...OOOO",
"OO.#++#..X+#OOOOOOOOO++OOOOXXO$    $O$ $.+###..OOO",
"OO.+##+.OOO+OO..O.OOO#OOOOOOO$$    $$   $#+++#.OOO",
"OO......OOOX+OO......OOOO$$$$      $     $++#+.OOO",
"OX+O.%%%%%%%%%%%%##+..OOo                 $##..OOO",
"#+OOO%%%%%%%%%%%%++#.OOOo$$$          $$$$....OOOO",
"+X#%%            %%#.OOOOO          $$OO.OO.O..OOO",
"OO+%%            %%+..OOOO$$$     $$OOOOOOOOOOOOOO",
"O%%          %%    %%+OOOOOOO$$$$$#+OOOOOOOOOOOXXO",
"O%%          %%    %%XX+OOOOOOOOOOOX+OOXXOOOOOX+XO",
"O%%                %%O+#OOOOOOOOOOO+XOX+XOOOOOXXOO",
"O%%                %%OOO+O+XO+#OOOO#OOXXOOOOOOOOOO",
"O%%                %%OXXO#+O+XO+....OOOOOOOOOOOOOO",
"O%%                %%O+OOOOOOOO..##...OOOOOOOOOOOO",
"OO.%%%%%%%%        %%OO#OOOOOOO.#%%#+..OOOOOooOOOO",
"OO.%%%%%%%%        %%X+OOooOOOO.#%%+##.OOOOOo#OOOO",
"OO.%%              %%+OOO#oOOOO%%  %%#.+OOOOOOOOOO",
"OO.%%              %%O+OOOOOOOO%%  %%..#+XOOOOOOOO",
"OO...%%%%%%%%        %%OOOOOOOO%%  %%.OOO+OOOOOOOO",
"OOOO.%%%%%%%%        %%.OOOOXXO%%  %%OOO+#OOOOOOOO",
"OOO......%%%%          %%OOOX%%    %%OO+O+OOOOOOOO",
"OOOO.OO.O%%%%          %%.OOO%%    %%X+XOOOOXXOOOO",
"OOOOOOO%%                %%%%      %%+OOOOOOX+XOOO",
"OOOOOOO%%                %%%%      %%#OOOOOOOXXOOO",
"OOOOOOO%%  %%                      %%+OOOOOOOOOOOO",
"OOOOXXO%%  %%                      %%O....O.OOO+#+",
"OOOX+XOOO%%%%                    %%O@@.##..OOX+X+O",
"OOOXXOOOO%%%%                    %%@  @@@#.O@@OOOO",
"OOOOOOOOOOOOO%%                %%%@@  @  @@@  @OOO",
"OOOOOO.....OO%%                %@@ @  @  @ @  @OOO",
"OOOO+O.+#.O.OO+%%            %%+@  @  @  @ @  @OOO",
"X+X+#..#+...OOX%%            %%X@  @  @  @ @  @@XO",
"+#+XOO.+###..#O%%          %%OOO@  @  @  @ @  @ @O",
"OOOOO..#++#.OOO%%          %%OOO@        @    @ @O",
"OOOOOO.#++#..OO%%          %%OOOO@      @O@@  @ @O",
"OOOOO..###+.OOO%%          %%.OOOO@@  @@OOO@    @O",
"OOOOOO...##..OO%%          %%...OOX@  @OooO@  @@OO",
"OOOOOOOO....OOO%%          %%+#.OO+@  @O#oO@  @OOO",
"OOOOOOOOOOOOO%%    %%%%    %%#+.OO#@  @OOOO@  @OOO",
"OOOOOOOOOOOOO%%    %%%%    %%...O#+@  @OOOO@  @OOO",
"OOOOOXXOOOOOOOO%%%%O...%%%%.OO.OO+O#@@OOOOOO@@OOOO",
"OOOOX+XOOOOOo#O%%%%OOO.%%%%O.O#++#OOO#+OOOOXXOOOOO",
"OOOOXXOOOOOOooOOOOOOOOOOOOOOOOOXOOOOO+X+OOOX+XOOOO",
"OOOOOOOOOOOOOOOOOOOOOOOOOOOOOOOOOOOOOOO+XOOOXXOOOO",
"OOOOOOOOOOOOOOOOOOOOOOOOOOOOOOOOOOOOOOO#+OOOOOOOOO"
};
