/* XPM */
static char *d556d3c8f9254bf0d7d9dc05f4c747bfrQ0bsq5NSZlLsofx[] = {
/* columns rows colors chars-per-pixel */
"50 50 10 1 ",
"  c black",
". c #4D0000",
"X c #780505",
"o c #6B2626",
"O c #9A0000",
"+ c #B43000",
"@ c #188D26",
"# c #F2B932",
"$ c #00B0FF",
"% c white",
/* pixels */
"OOOOOOOOOOOOOOOOOOOOOOX+OOOOOOOOOOOOOOOOOOOOOOOOOO",
"OOOO...OOOOOOOOO+XOO+#+#+OOo#OOOOOOOOOOOOOOOOOOOOO",
"OOOO.O..OOOOO+$$O#+X+OOOX+OooOOOOOXXOOOOOOO....OOO",
"OOOOOO.OOOO#+X$ $OOOOOOO+XOOOOOOOOX+XOOOO...#+..OO",
"OOO.O......O+O$  $OOXXOOO+#OOOOOOOOXXOOOO.#++##.OO",
"OOOO...##.O$OO$   $OX+XOOX+XOOOOOOOOOOOO+.+#+++.OO",
"OOO..###+.$ $O$    $OXXOOOO++OOOOOOOOO#+X..#++#.OO",
"OOO.#+++#$   $$    $$OOOOOOO#OOO.O..OO+OOO.+##+.OO",
"OOO.+#++$     $      $$$$OOOO......OO+XOOO......OO",
"OOO..##$                 oOO..+##%%%%%%%%%%%%.O+XO",
"OOOO....$$$$          $$$oOOO.#++%%%%%%%%%%%%OOO+#",
"OOO..O.OO.OO$$          OOOOO.#%%            %%#X+",
"OOOOOOOOOOOOOO$$     $$$OOOO..+%%            %%+OO",
"OXXOOOOOOOOOOO+#$$$$$OOOOOOO+%%    %%          %%O",
"OX+XOOOOOXXOO+XOOOOOOOOOOO+XX%%    %%          %%O",
"OOXXOOOOOX+XOX+OOOOOOOOOOO#+O%%                %%O",
"OOOOOOOOOOXXOO#OOOO#+OX+O+OOO%%                %%O",
"OOOOOOOOOOOOOO....+OX+O+#OXXO%%                %%O",
"OOOOOOOOOOOO...##..OOOOOOOO+O%%                %%O",
"OOOOooOOOOO..+#%%#.OOOOOOO#OO%%        %%%%%%%%.OO",
"OOOO#oOOOOO.##+%%#.OOOOooOO+X%%        %%%%%%%%.OO",
"OOOOOOOOOO+.#%%  %%OOOOo#OOO+%%              %%.OO",
"OOOOOOOOX+#..%%  %%OOOOOOOO+O%%              %%.OO",
"OOOOOOOO+OOO.%%  %%OOOOOOOO%%        %%%%%%%%...OO",
"OOOOOOOO#+OOO%%  %%OXXOOOO.%%        %%%%%%%%.OOOO",
"OOOOOOOO+O+OO%%    %%XOOO%%          %%%%......OOO",
"OOOOXXOOOOX+X%%    %%OOO.%%          %%%%O.OO.OOOO",
"OOOX+XOOOOOO+%%      %%%%                %%OOOOOOO",
"OOOXXOOOOOOO#%%      %%%%                %%OOOOOOO",
"OOOOOOOOOOOO+%%                      %%  %%OOOOOOO",
"+#+OOO.O....O%%                      %%  %%OXXOOOO",
"O+X+XOO..##.@@O%%                    %%%%OOOX+XOOO",
"OOOO@@O.#@@@  @%%                    %%%%OOOOXXOOO",
"OOO@  @@@  @  @@%%%                %%OOOOOOOOOOOOO",
"OOO@  @ @  @  @ @@%                %%OO.....OOOOOO",
"OOO@  @ @  @  @  @+%%            %%+OO.O.#+.O+OOOO",
"OX@@  @ @  @  @  @X%%            %%XOO...+#..#+X+X",
"O@ @  @ @  @  @  @OOO%%          %%O#..###+.OOX+#+",
"O@ @    @        @OOO%%          %%OOO.#++#..OOOOO",
"O@ @  @@O@      @OOOO%%          %%OO..#++#.OOOOOO",
"O@    @OOO@@  @@OOOO.%%          %%OOO.+###..OOOOO",
"OO@@  @OooO@  @XOO...%%          %%OO..##...OOOOOO",
"OOO@  @Oo#O@  @+OO.#+%%          %%OOO....OOOOOOOO",
"OOO@  @OOOO@  @#OO.+#%%    %%%%    %%OOOOOOOOOOOOO",
"OOO@  @OOOO@  @+#O...%%    %%%%    %%OOOOOOOOOOOOO",
"OOOO@@OOOOOO@@#O+OO.OO.%%%%...O%%%%OOOOOOOOXXOOOOO",
"OOOOOXXOOOO+#OOO#++#O.O%%%%.OOO%%%%O#oOOOOOX+XOOOO",
"OOOOX+XOOO+X+OOOOOXOOOOOOOOOOOOOOOOOooOOOOOOXXOOOO",
"OOOOXXOOOX+OOOOOOOOOOOOOOOOOOOOOOOOOOOOOOOOOOOOOOO",
"OOOOOOOOO+#OOOOOOOOOOOOOOOOOOOOOOOOOOOOOOOOOOOOOOO"
};
