/* XPM */
static char *c391fe943e2c4a3487f0ea2c93071129ZqA6hCoNHI8gnVBg[] = {
/* columns rows colors chars-per-pixel */
"50 50 13 1 ",
"  c black",
". c #312D2C",
"X c #36312E",
"o c #4D0000",
"O c #780505",
"+ c #512E1C",
"@ c #523626",
"# c #6B2626",
"$ c #49423F",
"% c #5E5551",
"& c #9A0000",
"* c #B43000",
"= c #F2B932",
/* pixels */
"&&&&&&&&&&&&&&&&&&&&&&O*&&&&&&&&&&&&&&&&&&&&&&&&&&",
"&&&&ooo&&&&&&&&&*O&&*=*=*&&#=&&&&&&&&&&&&&&&&&&&&&",
"&&&&o&oo&&&&&*=*&=*XXXXXXXXXXXX&&&OO&&&&&&&oooo&&&",
"&&&&&&o&&&&=*O*O&&&X$$$%XX%%%%X&&&O*O&&&&ooo=*oo&&",
"&&&o&oooooo&*&XXXXXX$..%XX%$..XXXXXXO&&&&o=**==o&&",
"&&&&ooo==o&&&&X%%%%X$..%XX%$..X%$$$X&&&&*o*=***o&&",
"&&&oo===*XXXXXX%$$$X%%%%XX%$$$X%..$XXXXXXoo=**=o&&",
"&&&o=***=X%..$X%..$XXXXXXXXXXXX%..$X%%%%X&o*==*o&&",
"&&&o*=**=X%..$X%..$X@@@@+@@@@@X%%%%X..$%X&oooooo&&",
"&&&oo===*X%$$$XXXXXX@@@@+@@@@@XXXXXX..$%X&o&&o&*O&",
"&&&&oooooX%%%%X@@@+@@@@@+@@@@@@+@@@X$$$%X&&&&&&&*=",
"&&&oo&o&XXXXXXX@@@+@@@@@+@@@@@@+@@@XXXXXXX&&&&&=O*",
"&&&&&&&&X$..%X@@@@+@@@@@+@@@@@@+@@@@X%$$$XO&&*=*&&",
"&OO&&&&&X$..%X@@@@+@@@@@+@@@@@@+@@@@X%$..XO&&O&&&&",
"&O*O&&&&X$$$%X@@@@+@@@@@+@@@@@@+@@@@X%$..X&&&&O*&&",
"&&OO&&&&X%%%%X@@@@+@@@@@+@@@@@@+@@@@X%%%%X&&&&*O&&",
"&&&&&&&XXXXXXX@@@@+@@@@@+@@@@@@+@@@@XXXXXXX&&&=&&&",
"&&&&&&&X%%%%X@@@@@+@@@@@+@@@@@@+@@@@@X$$$%Xooo&&&&",
"&&&&&&&X$..%X@@@@@+@@@@@+@@@@@@+@@@@@X..$%X*=ooo&&",
"&&&&##&X$..%X@@@@@+@@@@@+@@@@@@+@@@@@X..$%X=*==o&&",
"&&&&=#&X$$$%X@@@@@+@@@@@+@@@@@+@@@@@@X%%%%Xoo=*o&&",
"&&&&&&&XXXXXX@@@@@+@@@@@+@@@@@+@.....XXXXXX==*=o&&",
"&&&&&&&X%%%%X@@@@@+@@@@@+@@@@@+@. . .X%%%%X**==o&&",
"&&&&&&&X$$$%X@@@@@+@@@@@+@@@@@+@.....X%..$X*=ooo&&",
"&&&&&&&X..$%X@@%$....@@@+@@@@@+@@@@@@X%..$X==o&&&&",
"&&&&&&&X..$%X@@@@$.@@@@@+@@@@@+@@@@@+X%$$$Xoooo&&&",
"&&&&OO&XXXXXX@@@$...@@@@+@@@@@+@@@@@+XXXXXX&&o&&&&",
"&&&O*O&X%$$$X@@.@@+@$@@@+@@@@@+@@@@@+X$..%X&&&&&&&",
"&&&OO&&X%..$X@@.@@+@$@@+@@@@@@+@@@@@+X$..%X&&&&&&&",
"&&&&&&&X%..$X@@.@+@@%@@+@@@@@@+@@@@@+X$$$%X&&&&&&&",
"*=*&&&oX%%%%X@@@.$$%@@@+@@@@@@+@@@@@+X%%%%X&OO&&&&",
"&*O*O&&XXXXXX@@@@+@@@@@+@@@@@@+@@@@@+XXXXXX&O*O&&&",
"&&&&*&&X%%%%X@@@@+@@@@@+@@@@@@+@@@@@+X%$$$X&&OO&&&",
"&&&&&ooX$$$%X@@@@+@@@@@+@@@@@@+@.....X%$..X&&&&&&&",
"&&&&&o=X$..%X@@@@+@@@@@+@@@@@@+@. . .X%$..Xo&&&&&&",
"&&&&&o=X$..%X@@@@+@@@@@+@@@@@@+@.....X%%%%Xo&*&&&&",
"&OO&&ooXXXXXX@@@@+@@@@@+@@@@@@+@@@@+@XXXXXXoo=*O*O",
"&O*O&&&X%%%%X@@@@+@@@@@+@@@@@@+@@@@+@X%%%%Xo&&O*=*",
"&&OO&&&X%$..X@@@@+@@@@@+@@@@@+@@@@@+@X..$%Xoo&&&&&",
"&&&&&&&X%$..X@@@@+@@@@@+@@@@@+@@@@@+@X..$%Xo&&&&&&",
"&&&&&&&X%$$$X@@@@+@@@@@+@@@@@+@@@@@+@X$$$%Xoo&&&&&",
"&&&&&&&XXXXXX@@@@+@@@@@+@@@@@+@@@@@+@XXXXXXo&&&&&&",
"&&&&&&&X%%%%X@@@@+@@@@@+@@@@@+@@@@@+@X%$$$X&&&&&&&",
"&&&&&&&X%$$$X@@@@+@@@@@+@@@@@+@@@@@+@X%..$X&&&&&&&",
"&&&&&&&X%..$X@@@@+@@@@@+@@@@@+@@@@@+@X%..$X&&&&&&&",
"&&&&&&&X%..$X@@@@+@@@@@+@@@@@+@@@@@+@X%%%%XOO&&&&&",
"&&&&&OOXXXXXX++++++++++++++++++++++++XXXXXXO*O&&&&",
"&&&&O*O&&&*O*&&&&&O&&&&&&&&&&&&&&&&&##&&&&&&OO&&&&",
"&&&&OO&&&O*&&&&&&&&&&&&&&&&&&&&&&&&&&&&&&&&&&&&&&&",
"&&&&&&&&&*=&&&&&&&&&&&&&&&&&&&&&&&&&&&&&&&&&&&&&&&"
};
