/* XPM */
static char *_7109add86804180c6cd4b676dc1606fp4VcWRXtsk97JUWl[] = {
/* columns rows colors chars-per-pixel */
"50 50 6 1 ",
"  c #4D0000",
". c #780505",
"X c #6B2626",
"o c #9A0000",
"O c #B43000",
"+ c #F2B932",
/* pixels */
"oooooooooooooooooooooo.Ooooooooooooooooooooooooooo",
"oooo   oooooooooO.ooO+O+OooX+ooooooooooooooooooooo",
"oooo o  oooooO+Oo+O.Oooo.OoXXooooo..ooooooo    ooo",
"oooooo oooo+O.O.ooooooooO.oooooooo.O.oooo   +O  oo",
"ooo o      oOooooooo..oooO+oooooooo..oooo +OO++ oo",
"oooo   ++ oooooooooo.O.oo.O.ooooooooooooO O+OOO oo",
"ooo  +++O ooooooooooo..ooooOOooooooooo+O.  +OO+ oo",
"ooo +OOO+   oooooooooooooooo+ooo o  ooOooo O++O oo",
"ooo O+OO+O o.Oooooooooooooooo      ooO.ooo      oo",
"ooo  +++O+ oO+Oooooooooo+Xoo  O++O   ooooo oo oO.o",
"oooo        oo.OooooooooXXooo +OO++ ooooooooooooO+",
"ooo  o oo ooooO.Ooo..oooooooo +OO+O   ooooooooo+.O",
"oooooooooooooooOOo.O.ooooooo  O+O+ O+ ooo..ooO+Ooo",
"o..oooooooooooO+oo..ooooooooO  O+  +O oo.O.oo.oooo",
"o.O.ooooo..ooO.oooooooooooO..o        oo..oooo.Ooo",
"oo..ooooo.O.o.Oooooooooooo+OooooooooooooooooooO.oo",
"oooooooooo..oo+oooo+Oo.OoOooooooo..ooooooooooo+ooo",
"oooooooooooooo    Oo.OoO+o..ooooo.O.oooooo    oooo",
"oooooooooooo   ++  ooooooooOoooooo..ooooo  O+   oo",
"ooooXXooooo  O++O+ ooooooo+ooooooooooooooo +O++ oo",
"oooo+Xooooo ++OO++ ooooXXooO.ooooooooooo     +O oo",
"ooooooooooO +OOO+  ooooX+oooOooo.O+O.Oo  ++++O+ oo",
"oooooooo.O+  +O+O oooooooooOooo+O.Ooo+Oo +OOO++ oo",
"ooooooooOooo  ++  ooooooooo    ooooooooo +OO+   oo",
"oooooooo+Oooo    ooo..oooo  ++  oooooooo O+++ oooo",
"ooooooooOoOoooooooo.O.oooo O++O  oooooo        ooo",
"oooo..oooo.O.oooooo..ooo   +OO++ oooo..ooo oo oooo",
"ooo.O.ooooooOoooooooooo  +O+OOO+ oooo.O.oooooooooo",
"ooo..ooooooo+Ooooooooooo O+O+++  O+ooo..oooooooooo",
"ooooooooooooOoooooooooo   O+O   ooO.oooooooooooooo",
"O+Oooo o    ooooX+ooooooo  ++  ooO+ooooooooo..oooo",
"oO.O.oo  ++  oooXXoooooooo    ooooOooo+Xoooo.O.ooo",
"ooooOoo +++O  ooooooooooooO+oooooo.OooXXooooo..ooo",
"ooooo   +OO+ ooooooooooooo+OooooooO.oooooooooooooo",
"ooooo +O+OO+  oooo..oooo.OO.ooXXoo+oooo     oooooo",
"ooooo ++O++O oooo.O.ooooOoooooX+oo.Ooo o +O oOoooo",
"o..oo    ++  oooo..ooooO+oooooooooo.oo   O+  +O.O.",
"o.O.oooo    ooooooooooo+Oooooooooooo+  +++O oo.O+O",
"oo..ooooooooOooooooooooOoooooooooooooo +OO+  ooooo",
"oooooooooooo.O.ooooooooo oo ooooooooo  +OO+ oooooo",
"ooooooooooooo+Oooooo         ooooooooo O+++  ooooo",
"ooooooooXXooooO.oo   ++O++O o ooo..oo  ++   oooooo",
"ooooooooX+oooo.Ooo +O+O+OO+  ooo.O.ooo    oooooooo",
"ooooooooooooooO+oo O+  +OO+O ooo..oooooooooooooooo",
"oooooooooooooo.O+o     +++O+ ooooooooooooooooooooo",
"oooooooooooooO+oOoo oo        ooooooooooooo..ooooo",
"ooooo..ooooO+ooo+OO+o o o o oooooooo+Xooooo.O.oooo",
"oooo.O.oooO.Oooooo.oooooooooooooooooXXoooooo..oooo",
"oooo..ooo.Oooooooooooooooooooooooooooooooooooooooo",
"oooooooooO+ooooooooooooooooooooooooooooooooooooooo"
};
