/* XPM */
static char *e452429b4fbf4c23d157b8d969a64aa5se6OPy9IteT6rQRp[] = {
/* columns rows colors chars-per-pixel */
"50 50 10 1 ",
"  c black",
". c #4D0000",
"X c #780505",
"o c #6B2626",
"O c #9A0000",
"+ c #B43000",
"@ c #DF1E1E",
"# c #52E838",
"$ c #F2B932",
"% c white",
/* pixels */
"OOOOOOOOOOOOOOOOOOOOOOX+OOOOOOOOOOOOOOOOOOOOOOOOOO",
"OOOO...OOOOOOOOO+XOO+$+$+OOo$OOOOOOOOOOOOOOOOOOOOO",
"OOOO.O..OOOOO+$+O$+X+OOOX+OooOOOOOXXOOOOOOO....OOO",
"OOOOOO.OOOO$+X+XOOOOOOOO+XOOOOOOOOX+XOOOO...$+..OO",
"OOO.O......O+OOOOOOOXXOOO+$OOOOOOOOXXOOOO.$++$$.OO",
"OOOO...      OOOOOOOX+XOOX+XOOOOOOOOOOOO+.+$+++.OO",
"OOO..$$      OOOOOOOOXXOOOO++OOOOOOOOO$+X..$++$.OO",
"OOO.$++      OOOOOOOOOOOOOOO$OOO.O..OO+OOO.+$$+.OO",
"OOO.   ######         OOOOOOO......OO+XOOO......OO",
"OOO.   ######         OO$oOO..+$$+...OOOOO.OO.O+XO",
"OOOO   ######         OOooOOO.$++$$.OOOOOOOOOOOO+$",
"OOO.   ############      OOOO.$++$+...OOOOOOOOO$X+",
"OOOO   ############      OOO..+$+$.+$.OOOXXOO+$+OO",
"OXXO   ############      OOO+..+$..$+.OOX+XOOXOOOO",
"OX+XOOO      ###   ######   XO........OOXXOOOOX+OO",
"OOXXOOO      ###   ######   OOOOOOOOOOOOOOOOOO+XOO",
"OOOOOOO      ###   ######   OOOOOXXOOOOOOOOOOO$OOO",
"OOOOOOOOOO   ###         ###            OO....OOOO",
"OOOOOOOOOO   ###         ###            O..+$...OO",
"OOOOooOOOO   ###         ###            OO.$+$$.OO",
"OOOO$oOOOOO.$   ###   ###   @@@@@@@@@@@@   ..$+.OO",
"OOOOOOOOOO+.$   ###   ###   @@@@@@@@@@@@   $$+$.OO",
"OOOOOOOOX+$..   ###   ###   @@@@@@@@@@@@   ++$$.OO",
"OOOOOOOO+OOO.      @@@   @@@@@@@@@@@@@@@@@@   ..OO",
"OOOOOOOO$+OOO      @@@   @@@@@@@@@@@@@@@@@@   OOOO",
"OOOOOOOO+O+OO      @@@   @@@@@@@@@@@@@@@@@@   .OOO",
"OOOOXXOOOO   @@@@@@@@@@@@   @@@@@@@@@@@@@@@   OOOO",
"OOOX+XOOOO   @@@@@@@@@@@@   @@@@@@@@@@@@@@@   OOOO",
"OOOXXOOOOO   @@@@@@@@@@@@   @@@@@@@@@@@@@@@   OOOO",
"OOOOOOO   @@@@@@@@@@@@@@@@@@   @@@@@@%%%@@@   OOOO",
"+$+OOO.   @@@@@@@@@@@@@@@@@@   @@@@@@%%%@@@   OOOO",
"O+X+XOO   @@@@@@@@@@@@@@@@@@   @@@@@@%%%@@@   XOOO",
"OOOO+OO   @@@@@@@@@@@@@@@@@@   %%%%%%@@@@@@   XOOO",
"OOOOO..   @@@@@@@@@@@@@@@@@@   %%%%%%@@@@@@   OOOO",
"OOOOO.$   @@@@@@@@@@@@@@@@@@   %%%%%%@@@@@@   OOOO",
"OOOOO.$   @@@@@@@@@@@@%%%@@@   @@@@@@@@@   .O+OOOO",
"OXXOO..   @@@@@@@@@@@@%%%@@@   @@@@@@@@@   ..$+X+X",
"OX+XOOO   @@@@@@@@@@@@%%%@@@   @@@@@@@@@   .OOX+$+",
"OOXXOOO   @@@@@@%%%%%%@@@@@@            ++$..OOOOO",
"OOOOOOO   @@@@@@%%%%%%@@@@@@            ++$.OOOOOO",
"OOOOOOO   @@@@@@%%%%%%@@@@@@            $$$..OOOOO",
"OOOOOOOOoo   @@@@@@@@@@@@   O.OOOXXOO..$$...OOOOOO",
"OOOOOOOOo$   @@@@@@@@@@@@   .OOOX+XOOO....OOOOOOOO",
"OOOOOOOOOO   @@@@@@@@@@@@   .OOOXXOOOOOOOOOOOOOOOO",
"OOOOOOOOOOOOO            $+$.OOOOOOOOOOOOOOOOOOOOO",
"OOOOOOOOOOOOO            .....OOOOOOOOOOOOOXXOOOOO",
"OOOOOXXOOOO+$            .O.OOOOOOOO$oOOOOOX+XOOOO",
"OOOOX+XOOO+X+OOOOOXOOOOOOOOOOOOOOOOOooOOOOOOXXOOOO",
"OOOOXXOOOX+OOOOOOOOOOOOOOOOOOOOOOOOOOOOOOOOOOOOOOO",
"OOOOOOOOO+$OOOOOOOOOOOOOOOOOOOOOOOOOOOOOOOOOOOOOOO"
};
