/* XPM */
static char *_411830a8ec64950dcc5f6fecc410eceUECKxYebxs2EPv18[] = {
/* columns rows colors chars-per-pixel */
"50 50 3 1 ",
"  c #0D0F20",
". c #1A1F40",
"X c #3A3F60",
/* pixels */
"                                                  ",
" XXXX  XXXXXXXXXXXXXXXXXXX ............XXXXXXXXXX ",
" .XXXX XXX.....XX......XXX X............X..X....X ",
" ...... .................X X...................XX ",
" ....... ................X XX......X............X ",
" ........................X XXXXXXXXXX  .......... ",
" .......................XX                        ",
" X......................XX ..........   ..... ... ",
" X.......................X .........X. ......  .. ",
" X................ .....XX .........XX ...... ..X ",
" X............. . ......XX  .........X XX... ...X ",
" X....X........  .......XX .  .......X XX.......X ",
" XXXXXXXX.X.... ...   XXXX X.. ......X XX.......X ",
"                           X.........X XX.......X ",
" .......X ......X  XX.XXX. X........XX X......... ",
" .......X .......X XXX.... X.......... X......... ",
" .......X ........ X...... XX......... X......... ",
" .. ...XX ........ X...... X...... ... X......... ",
" . ....XX X....... X...... X.......  . X......... ",
"   ....XX XX...... X......  XXX......  .........X ",
" ......XX XX...... ......              .........X ",
" .......X XX...... ... ...  ......XXXX ..  .....X ",
" ........ X....... .. .... .......X..X . .. ....X ",
" X....... X..XX... .. .... X..........  ........X ",
" X..... . XXXXXXX    . ... X.......... .......X.X ",
" X.... .                   X.........X  ....XXXXX ",
" X... ... ..XX..    ....XX X........XX            ",
" XX...... ...............X X......XXX   X........ ",
" XX...... X...............             X......... ",
" XX...... X...........X..X .....................X ",
" XX...... XX.. .....XXXX.X .XXXXXXXXX..   .XXXXXX ",
" XX....X. XX...  ...X                             ",
" XXXXXXXX XXXX.. .XXX XX.... XXXX.   ..    XXXXXX ",
"                      X......................XXXX ",
" XXXXX...XXX......XXX ........................... ",
" XX.................X X.......... ............... ",
" X................... X.........  ..........XX... ",
" X.........XXX......X X...XXX... ...XXXXXXXXXXXX. ",
" X.... ....X                                      ",
" .... .....X XXX.. .....XXXX .X.........XXXXXXX.. ",
" ..XX ...XX  X.... ........X X.........  ........ ",
"             X..... .......X X..........  ......X ",
" ....XXXXX.  ....X..X.X....X X.X..X ..... ...XXXX ",
" ........... .XXXX  XXX..     XXXXX               ",
" X.........X                         XXX......... ",
" X.........XX....  XXXXX..    ..X.. XXX.........X ",
" XX....  ........X X...X........X.X X...........X ",
" XXX.... ......XXX X... ......X...X ....   ....XX ",
" .XXX... .XXXXX.XX ... ...X..XXXXXX .... ...XXXXX ",
"                                                  "
};
