/* XPM */
static char *_e6e87a3f78145b2b903a017f401c299SIdZ5pXsVNrBiXix[] = {
/* columns rows colors chars-per-pixel */
"150 50 5 1 ",
"  c black",
". c #FBE011",
"X c #EEA84A",
"o c #F6EDAC",
"O c white",
/* pixels */
"OOOOOOOOOOOOOOOOOOOOOOOOOOOOOOOOOOOOOOOOOOOOOOOOOOOOOOOOOOOOOOOOOOOOOOOOOOOOOOOOOOOOOOOOOOOOOOOOOOOOOOOOOOOOOOOOOOOOOOOOOOOOOOOOOOOOOOOOOOOOOOOOOOOOOO",
"OOOOOOOOOOOOOOOOOOOOOOOOOOOOOOOOOOOOOOOOOOOOOOOOOOOOOOOOOOOOOOOOOOOOOOOOOOOOOOOOOOOOOOOOOOOOOOOOOOOOOOOOOOOOOOOOOOOOOOOOOOOOOOOOOOOOOOOOOOOOOOOOOOOOOO",
"OOOOOOOOOOOOOOOOOOOOOOOOOOOOOOOOOOOOOOOOOOOOOOOOOOOOOOOOOOOOOOOOOOOOOOOOOOOOOOOOOOOOOOOOOOOOOOOOOOOOOOOOOOOOOOOOOOOOOOOOOOOOOOOOOOOOOOOOOOOOOOOOOOOOOO",
"OOOOOOOOOOOOOOOOOOOOOOOOOOOOOOOOOOOOOOOOOOOOOOOOOOOOOOOOOOOOOOOOOOOOOOOOOOOOOOOOOOOOOOOOOOOOOOOOOOOOOOOOOOOOOOOOOOOOOOOOOOOOOOOOOOOOOOOOOOOOOOOOOOOOOO",
"OOOOOOOOOOOOOOOOOOOOOOOOOOOOOOOOOOOOOOOOOOOOOOOOOOOOOOOOOOOOOOOOOOOOOOOOOOOOOOOOOOOOOOOOOOOOOOOOOOOOOOOOOOOOOOOOOOOOOOOOOOOOOOOOOOOOOOOOOOOOOOOOOOOOOO",
"OOOOOOOOOOOOOOOOOOOOOOOOOOOOOOOOOOOOOOOOOOOOOOOOOOOOOOOOOOOOOOOOOOOOOOOOOOOOOOOOOOOOOOOOOOOOOOOOOOOOOOOOOOOOOOOOOOOOOOOOOOOOOOOOOOOOOOOOOOOOOOOOOOOOOO",
"OOOOOOOOOOOOOOOOOOOOOOOOOOOOOOOOOOOOOOOOOOOOOOOOOOOOOOOOOOOOOOOOOOOOOOOOOOOOOOOOOOOOOOOOOOOOOOOOOOOOOOOOOOOOOOOOOOOOOOOOOOOOOOOOOOOOOOOOOOOOOOOOOOOOOO",
"OOOOOOOOOOOOOOOOOOOOOOOOOOOOOOOOOOOOOOOOOOOOOOOOOOOOOOOOOOOOO....................XXXXOOOOOOOOOOOOOOOOOOOOOOOOOOOOOOOOOOOOOOOOOOOOOOOOOOOOOOOOOOOOOOOOO",
"OOOOOOOOOOOOOOOOOOOOOOOOOOOOOOOOOOOOOOOOOOOOOOOOOOOOOOOOOOOOO....................XXXXOOOOOOOOOOOOOOOOOOOOOOOOOOOOOOOOOOOOOOOOOOOOOOOOOOOOOOOOOOOOOOOOO",
"OOOOOOOOOOOOOOOOOOOOOOOOOOOOOOOOOOOOOOOOOOOOOOOOOOOOOOOOOOOOO....................XXXXOOOOOOOOOOOOOOOOOOOOOOOOOOOOOOOOOOOOOOOOOOOOOOOOOOOOOOOOOOOOOOOOO",
"OOOOOOOOOOOOOOOOOOOOOOOOOOOOOOOOOOOOOOOOOOOOOOOOOOOOOOOOOOOOO....................XXXXOOOOOOOOOOOOOOOOOOOOOOOOOOOOOOOOOOOOOOOOOOOOOOOOOOOOOOOOOOOOOOOOO",
"OOOOOOOOOOOOOOOOOOOOOOOOOOOOOOOOOOOOOOOOOOOOOOOOOOOOOOOOOOOOO....oooo............XXXXOOOOOOOOOOOOOOOOOOOOOOOOOOOOOOOOOOOOOOOOOOOOOOOOOOOOOOOOOOOOOOOOO",
"OOOOOOOOOOOOOOOOOOOOOOOOOOOOOOOOOOOOOOOOOOOOOOOOOOOOOOOOOOOOO....oooo............XXXXOOOOOOOOOOOOOOOOOOOOOOOOOOOOOOOOOOOOOOOOOOOOOOOOOOOOOOOOOOOOOOOOO",
"OOOOOOOOOOOOOOOOOOOOOOOOOOOOOOOOOOOOOOOOOOOOOOOOOOOOOOOOOOOOO....oooo............XXXXOOOOOOOOOOOOOOOOOOOOOOOOOOOOOOOOOOOOOOOOOOOOOOOOOOOOOOOOOOOOOOOOO",
"OOOOOOOOOOOOOOOOOOOOOOOOOOOOOOOOOOOOOOOOOOOOOOOOOOOOOOOOOOOOO....oooo............XXXXOOOOOOOOOOOOOOOOOOOOOOOOOOOOOOOOOOOOOOOOOOOOOOOOOOOOOOOOOOOOOOOOO",
"OO   OOOOOOOOO   OOOOOO      OOOOOO   OOOOOO   OOOOOOOOOO........oooo............XXXX........OOOOOOOOOOO  OOOOOOOOO  OOOOOO      OOOOO      OOOOO   OO",
"OO O OOOOOOOOO O OOOOOO      OOOOOO O OOOOOO O OOOOOOOOOO........oooo............XXXX........OOOOOOOOOO O OOOOOOOOO O OOOOO      OOOOO      OOOOO O OO",
"OO   OOOOOOOOO   OOOOO        OOOOO   OOOOOO   OOOOOOOOOO........oooo............XXXX........OOOOOOOOOO   OOOOOOOOO   OOOO        OOOO  O   OOOOO   OO",
"OOOOO   OOO   OOOOOO    OOOO    OOO   OOOOOO   OOOOOOOOOO........oooo............XXXX........OOOOOOOOOO   OOOOOOOOO   OO    OOOO    OO   O   OOOO   OO",
"OOOOO   OOO   OOOOOO   OOOOOO   OOO   OOOOOO   OOOOOOOOOO....OOOOoooo............XXXXOOOO....OOOOOOOOOO   OOOOOOOOO   OO   OOOOOO   OO   O   OOOO   OO",
"OOOOO   OOO   OOOOOO   OOOOOO   OOO   OOOOOO   OOOOOOOOOO....OOOOoooo............XXXXOOOO....OOOOOOOOOO   OOOOOOOOO   OO   OOOOOO   OO   O   OOOO   OO",
"OOOOOOOO   OOOOOOOOO   OOOOOO   OOO   OOOOOO   OOOOOOOOOO....OOOOoooo............XXXXOOOO....OOOOOOOOOO   OOOOOOOOO   OO   OOOOOO   OO   OO   OOO   OO",
"OOOOOOOO   OOOOOOOOO   OOOOOO   OOO   OOOOOO   OOOOOOOOOO....OOOOoooo............XXXXOOOO....OOOOOOOOOO   OOOOOOOOO   OO   OOOOOO   OO   OO   OOO   OO",
"OOOOOOOO   OOOOOOOOO   OOOOOO   OOO   OOOOOO   OOOOOOOOOOOOOO........oooo........XXXX....OOOOOOOOOOOOOO   OOOOOOOOO   OO   OOOOOO   OO   OO   OOO   OO",
"OOOOOOOO   OOOOOOOOO   OOOOOO   OOO   OOOOOO   OOOOOOOOOOOOOO........oooo........XXXX....OOOOOOOOOOOOOOO   OOOOOOO   OOO   OOOOOO   OO   OOO   OO   OO",
"OOOOOOOO   OOOOOOOOO   OOOOOO   OOO   OOOOOO   OOOOOOOOOOOOOO........oooo........XXXX....OOOOOOOOOOOOOOO   OOOOOOO   OOO   OOOOOO   OO   OOO   OO   OO",
"OOOOOOOO   OOOOOOOOO   OOOOOO   OOO   OOOOOO   OOOOOOOOOOOOOO........oooo........XXXX....OOOOOOOOOOOOOOO   OOO OOO   OOO   OOOOOO   OO   OOO   OO   OO",
"OOOOOOOO   OOOOOOOOO   OOOOOO   OOO   OOOOOO   OOOOOOOOOOOOOOOOOO............XXXXOOOOOOOOOOOOOOOOOOOOOOOO   O   O   OOOO   OOOOOO   OO   OOOO   O   OO",
"OOOOOOOO   OOOOOOOOO   OOOOOO   OOO O OOOOOO O OOOOOOOOOOOOOOOOOO............XXXXOOOOOOOOOOOOOOOOOOOOOOOO   O   O   OOOO   OOOOOO   OO   OOOO   O   OO",
"OOOOOOOO   OOOOOOOOO    OOOO    OOO    OOOO    OOOOOOOOOOOOOOOOOO............XXXXOOOOOOOOOOOOOOOOOOOOOOOO   O O O   OOOO    OOOO    OO   OOOO   O   OO",
"OOOOOOOO   OOOOOOOOOOO        OOOOOOO        OOOOOOOOOOOOOOOOOOOO............XXXXOOOOOOOOOOOOOOOOOOOOOOOOO   OOO   OOOOOOO        OOOO   OOOOO   O  OO",
"OOOOOOOO O OOOOOOOOOOOO      OOOOOOOOO      OOOOOOOOOOOOOOOOOOOOOOOOO....XXXXOOOOOOOOOOOOOOOOOOOOOOOOOOOOO O OOO O OOOOOOOO      OOOOO O OOOOO      OO",
"OOOOOOOO   OOOOOOOOOOOO      OOOOOOOOO      OOOOOOOOOOOOOOOOOOOOOOOOO....XXXXOOOOOOOOOOOOOOOOOOOOOOOOOOOOO   OOO   OOOOOOOO      OOOOO   OOOOO      OO",
"OOOOOOOOOOOOOOOOOOOOOOOOOOOOOOOOOOOOOOOOOOOOOOOOOOOOOOOOOOOOOOOOOOOOO....XXXXOOOOOOOOOOOOOOOOOOOOOOOOOOOOOOOOOOOOOOOOOOOOOOOOOOOOOOOOOOOOOOOOOOOOOOOOO",
"OOOOOOOOOOOOOOOOOOOOOOOOOOOOOOOOOOOOOOOOOOOOOOOOOOOOOOOOOOOOOOOOOOOOO....XXXXOOOOOOOOOOOOOOOOOOOOOOOOOOOOOOOOOOOOOOOOOOOOOOOOOOOOOOOOOOOOOOOOOOOOOOOOO",
"OOOOOOOOOOOOOOOOOOOOOOOOOOOOOOOOOOOOOOOOOOOOOOOOOOOOOOOOOOOOOOOOOOOOOXXXXXXXXOOOOOOOOOOOOOOOOOOOOOOOOOOOOOOOOOOOOOOOOOOOOOOOOOOOOOOOOOOOOOOOOOOOOOOOOO",
"OOOOOOOOOOOOOOOOOOOOOOOOOOOOOOOOOOOOOOOOOOOOOOOOOOOOOOOOOOOOOOOOOOOOOXXXXXXXXOOOOOOOOOOOOOOOOOOOOOOOOOOOOOOOOOOOOOOOOOOOOOOOOOOOOOOOOOOOOOOOOOOOOOOOOO",
"OOOOOOOOOOOOOOOOOOOOOOOOOOOOOOOOOOOOOOOOOOOOOOOOOOOOOOOOOOOOOOOOOOOOOXXXXXXXXOOOOOOOOOOOOOOOOOOOOOOOOOOOOOOOOOOOOOOOOOOOOOOOOOOOOOOOOOOOOOOOOOOOOOOOOO",
"OOOOOOOOOOOOOOOOOOOOOOOOOOOOOOOOOOOOOOOOOOOOOOOOOOOOOOOOOOOOOOOOOOOOOXXXXXXXXOOOOOOOOOOOOOOOOOOOOOOOOOOOOOOOOOOOOOOOOOOOOOOOOOOOOOOOOOOOOOOOOOOOOOOOOO",
"OOOOOOOOOOOOOOOOOOOOOOOOOOOOOOOOOOOOOOOOOOOOOOOOOOOOOOOOOOOOOOOOO................OOOOOOOOOOOOOOOOOOOOOOOOOOOOOOOOOOOOOOOOOOOOOOOOOOOOOOOOOOOOOOOOOOOOO",
"OOOOOOOOOOOOOOOOOOOOOOOOOOOOOOOOOOOOOOOOOOOOOOOOOOOOOOOOOOOOOOOOO................OOOOOOOOOOOOOOOOOOOOOOOOOOOOOOOOOOOOOOOOOOOOOOOOOOOOOOOOOOOOOOOOOOOOO",
"OOOOOOOOOOOOOOOOOOOOOOOOOOOOOOOOOOOOOOOOOOOOOOOOOOOOOOOOOOOOOOOOO................OOOOOOOOOOOOOOOOOOOOOOOOOOOOOOOOOOOOOOOOOOOOOOOOOOOOOOOOOOOOOOOOOOOOO",
"OOOOOOOOOOOOOOOOOOOOOOOOOOOOOOOOOOOOOOOOOOOOOOOOOOOOOOOOOOOOOOOOO................OOOOOOOOOOOOOOOOOOOOOOOOOOOOOOOOOOOOOOOOOOOOOOOOOOOOOOOOOOOOOOOOOOOOO",
"OOOOOOOOOOOOOOOOOOOOOOOOOOOOOOOOOOOOOOOOOOOOOOOOOOOOOOOOOOOOOOOOOOOOOOOOOOOOOOOOOOOOOOOOOOOOOOOOOOOOOOOOOOOOOOOOOOOOOOOOOOOOOOOOOOOOOOOOOOOOOOOOOOOOOO",
"OOOOOOOOOOOOOOOOOOOOOOOOOOOOOOOOOOOOOOOOOOOOOOOOOOOOOOOOOOOOOOOOOOOOOOOOOOOOOOOOOOOOOOOOOOOOOOOOOOOOOOOOOOOOOOOOOOOOOOOOOOOOOOOOOOOOOOOOOOOOOOOOOOOOOO",
"OOOOOOOOOOOOOOOOOOOOOOOOOOOOOOOOOOOOOOOOOOOOOOOOOOOOOOOOOOOOOOOOOOOOOOOOOOOOOOOOOOOOOOOOOOOOOOOOOOOOOOOOOOOOOOOOOOOOOOOOOOOOOOOOOOOOOOOOOOOOOOOOOOOOOO",
"OOOOOOOOOOOOOOOOOOOOOOOOOOOOOOOOOOOOOOOOOOOOOOOOOOOOOOOOOOOOOOOOOOOOOOOOOOOOOOOOOOOOOOOOOOOOOOOOOOOOOOOOOOOOOOOOOOOOOOOOOOOOOOOOOOOOOOOOOOOOOOOOOOOOOO",
"OOOOOOOOOOOOOOOOOOOOOOOOOOOOOOOOOOOOOOOOOOOOOOOOOOOOOOOOOOOOOOOOOOOOOOOOOOOOOOOOOOOOOOOOOOOOOOOOOOOOOOOOOOOOOOOOOOOOOOOOOOOOOOOOOOOOOOOOOOOOOOOOOOOOOO",
"OOOOOOOOOOOOOOOOOOOOOOOOOOOOOOOOOOOOOOOOOOOOOOOOOOOOOOOOOOOOOOOOOOOOOOOOOOOOOOOOOOOOOOOOOOOOOOOOOOOOOOOOOOOOOOOOOOOOOOOOOOOOOOOOOOOOOOOOOOOOOOOOOOOOOO",
"OOOOOOOOOOOOOOOOOOOOOOOOOOOOOOOOOOOOOOOOOOOOOOOOOOOOOOOOOOOOOOOOOOOOOOOOOOOOOOOOOOOOOOOOOOOOOOOOOOOOOOOOOOOOOOOOOOOOOOOOOOOOOOOOOOOOOOOOOOOOOOOOOOOOOO"
};
