/* XPM */
static char *_e56dcebe3b948e3b3d17a23423d4e8b5YtKX52iBWTazfRz[] = {
/* columns rows colors chars-per-pixel */
"50 50 4 1 ",
"  c #9A0000",
". c #FDA700",
"X c #FDD400",
"o c #FFE86F",
/* pixels */
"                                                  ",
"                                                  ",
"                                                  ",
"                                                  ",
"                                                  ",
"                                                  ",
"                                                  ",
"            XXXXXXXXXXXXXXXXXXXX....              ",
"            XXXXXXXXXXXXXXXXXXXX....              ",
"            XXXXXXXXXXXXXXXXXXXX....              ",
"            XXXXXXXXXXXXXXXXXXXX....              ",
"            XXXXooooXXXXXXXXXXXX....              ",
"            XXXXooooXXXXXXXXXXXX....              ",
"            XXXXooooXXXXXXXXXXXX....              ",
"            XXXXooooXXXXXXXXXXXX....              ",
"        XXXXXXXXooooXXXXXXXXXXXX....XXXXXXXX      ",
"        XXXXXXXXooooXXXXXXXXXXXX....XXXXXXXX      ",
"        XXXXXXXXooooXXXXXXXXXXXX....XXXXXXXX      ",
"        XXXXXXXXooooXXXXXXXXXXXX....XXXXXXXX      ",
"        XXXX    ooooXXXXXXXXXXXX....    XXXX      ",
"        XXXX    ooooXXXXXXXXXXXX....    XXXX      ",
"        XXXX    ooooXXXXXXXXXXXX....    XXXX      ",
"        XXXX    ooooXXXXXXXXXXXX....    XXXX      ",
"            XXXXXXXXooooXXXXXXXX....XXXX          ",
"            XXXXXXXXooooXXXXXXXX....XXXX          ",
"            XXXXXXXXooooXXXXXXXX....XXXX          ",
"            XXXXXXXXooooXXXXXXXX....XXXX          ",
"                XXXXXXXXXXXX....                  ",
"                XXXXXXXXXXXX....                  ",
"                XXXXXXXXXXXX....                  ",
"                XXXXXXXXXXXX....                  ",
"                    XXXX....                      ",
"                    XXXX....                      ",
"                    XXXX....                      ",
"                    XXXX....                      ",
"                    ........                      ",
"                    ........                      ",
"                    ........                      ",
"                    ........                      ",
"                XXXXXXXXXXXXXXXX                  ",
"                XXXXXXXXXXXXXXXX                  ",
"                XXXXXXXXXXXXXXXX                  ",
"                XXXXXXXXXXXXXXXX                  ",
"                                                  ",
"                                                  ",
"                                                  ",
"                                                  ",
"                                                  ",
"                                                  ",
"                                                  "
};
