
/* XPM */
static char *_49cd38bed834885ead7170844bb51b49i3iV5nVGk0uB4aq[] = {
/* columns rows colors chars-per-pixel */
"32 32 3 1 ",
"  c black",
". c #EEBD00",
"X c white",
/* pixels */
"               ...              ",
"               ...              ",
"               ...              ",
"               ...              ",
"               ...              ",
"            .........           ",
"            .........           ",
"            .........           ",
"            .........           ",
"            .........           ",
"            .........           ",
"................................",
"................................",
"................................",
"   ..........  ....  .........  ",
"   .........   ...   .........  ",
"   .........X  ...X  .........  ",
"      ......X  ...X  ......     ",
"      ......   ...   ......     ",
"      .......  ....  ......     ",
"         ...............        ",
"         ...............        ",
"         ...............        ",
"      .....................     ",
"      .....................     ",
"      .....................     ",
"      .........   .........     ",
"      .........   .........     ",
"      .........   .........     ",
"   ......               ......  ",
"   ......               ......  ",
"   ......               ......  "
};